<mxfile host="app.diagrams.net" modified="2023-03-22T17:31:28.171Z" agent="5.0 (Windows NT 10.0; Win64; x64) AppleWebKit/537.36 (KHTML, like Gecko) Chrome/111.0.0.0 Safari/537.36" etag="x0p51y2arsnknxaquqvJ" version="21.0.10" type="github">
  <diagram name="Страница 1" id="7Tp4dtKvz_bxgCv6Vncr">
    <mxGraphModel dx="1820" dy="782" grid="1" gridSize="10" guides="1" tooltips="1" connect="1" arrows="1" fold="1" page="0" pageScale="1" pageWidth="827" pageHeight="1169" math="0" shadow="0">
      <root>
        <mxCell id="0" />
        <mxCell id="1" parent="0" />
        <mxCell id="i2495FWqEjLljB1UTNFo-4" value="" style="group" parent="1" vertex="1" connectable="0">
          <mxGeometry x="60" y="220" width="280" height="140" as="geometry" />
        </mxCell>
        <mxCell id="i2495FWqEjLljB1UTNFo-1" value="&lt;font face=&quot;Times New Roman&quot; style=&quot;font-size: 18px;&quot;&gt;Разработка рекомендательной системы по диагностике и лечению бронхолегочных заболеваний&amp;nbsp;&lt;/font&gt;" style="rounded=1;whiteSpace=wrap;html=1;" parent="i2495FWqEjLljB1UTNFo-4" vertex="1">
          <mxGeometry width="280" height="140" as="geometry" />
        </mxCell>
        <mxCell id="i2495FWqEjLljB1UTNFo-3" value="&lt;font style=&quot;font-size: 18px;&quot;&gt;А0&lt;/font&gt;" style="text;html=1;strokeColor=none;fillColor=none;align=center;verticalAlign=middle;whiteSpace=wrap;rounded=0;fontFamily=Times New Roman;fontSize=18;" parent="i2495FWqEjLljB1UTNFo-4" vertex="1">
          <mxGeometry x="230" y="105" width="60" height="26.25" as="geometry" />
        </mxCell>
        <mxCell id="i2495FWqEjLljB1UTNFo-5" value="Данные о пациенте" style="endArrow=classic;html=1;rounded=0;entryX=0;entryY=0.25;entryDx=0;entryDy=0;fontFamily=Times New Roman;fontSize=15;" parent="1" target="i2495FWqEjLljB1UTNFo-1" edge="1">
          <mxGeometry width="50" height="50" relative="1" as="geometry">
            <mxPoint x="-160" y="255" as="sourcePoint" />
            <mxPoint x="-140" y="220" as="targetPoint" />
            <Array as="points">
              <mxPoint x="60" y="255" />
            </Array>
          </mxGeometry>
        </mxCell>
        <mxCell id="i2495FWqEjLljB1UTNFo-10" value="Клинические&lt;br&gt;&amp;nbsp;рекомендации" style="endArrow=classic;html=1;rounded=0;entryX=0.75;entryY=0;entryDx=0;entryDy=0;fontSize=15;fontFamily=Times New Roman;" parent="1" target="i2495FWqEjLljB1UTNFo-1" edge="1">
          <mxGeometry width="50" height="50" relative="1" as="geometry">
            <mxPoint x="270" y="80" as="sourcePoint" />
            <mxPoint x="300" y="180" as="targetPoint" />
          </mxGeometry>
        </mxCell>
        <mxCell id="i2495FWqEjLljB1UTNFo-12" value="Анамнез" style="endArrow=classic;html=1;rounded=0;entryX=0;entryY=0.25;entryDx=0;entryDy=0;fontFamily=Times New Roman;fontSize=15;" parent="1" edge="1">
          <mxGeometry width="50" height="50" relative="1" as="geometry">
            <mxPoint x="-160" y="280.5" as="sourcePoint" />
            <mxPoint x="60" y="280" as="targetPoint" />
          </mxGeometry>
        </mxCell>
        <mxCell id="i2495FWqEjLljB1UTNFo-13" value="База данных" style="endArrow=classic;html=1;rounded=0;fontSize=15;fontFamily=Times New Roman;" parent="1" edge="1">
          <mxGeometry width="50" height="50" relative="1" as="geometry">
            <mxPoint x="80" y="480" as="sourcePoint" />
            <mxPoint x="80" y="360" as="targetPoint" />
          </mxGeometry>
        </mxCell>
        <mxCell id="i2495FWqEjLljB1UTNFo-14" value="Пользователь" style="endArrow=classic;html=1;rounded=0;fontSize=15;fontFamily=Times New Roman;" parent="1" edge="1">
          <mxGeometry width="50" height="50" relative="1" as="geometry">
            <mxPoint x="180" y="480" as="sourcePoint" />
            <mxPoint x="180" y="360" as="targetPoint" />
          </mxGeometry>
        </mxCell>
        <mxCell id="i2495FWqEjLljB1UTNFo-15" value="ПО/модели и &lt;br style=&quot;font-size: 15px;&quot;&gt;алгоритмы&lt;br style=&quot;font-size: 15px;&quot;&gt;&amp;nbsp;принятия решений" style="endArrow=classic;html=1;rounded=0;fontSize=15;fontFamily=Times New Roman;" parent="1" edge="1">
          <mxGeometry width="50" height="50" relative="1" as="geometry">
            <mxPoint x="290" y="480" as="sourcePoint" />
            <mxPoint x="290" y="360" as="targetPoint" />
          </mxGeometry>
        </mxCell>
        <mxCell id="i2495FWqEjLljB1UTNFo-16" value="Термины и &lt;br style=&quot;font-size: 15px;&quot;&gt;условные обозначения" style="endArrow=classic;html=1;rounded=0;entryX=0.214;entryY=0;entryDx=0;entryDy=0;entryPerimeter=0;fontSize=15;fontFamily=Times New Roman;" parent="1" target="i2495FWqEjLljB1UTNFo-1" edge="1">
          <mxGeometry width="50" height="50" relative="1" as="geometry">
            <mxPoint x="120" y="80" as="sourcePoint" />
            <mxPoint x="120" y="40" as="targetPoint" />
          </mxGeometry>
        </mxCell>
        <mxCell id="i2495FWqEjLljB1UTNFo-17" value="Диагноз" style="endArrow=classic;html=1;rounded=0;entryX=0;entryY=0.25;entryDx=0;entryDy=0;fontFamily=Times New Roman;fontSize=15;" parent="1" edge="1">
          <mxGeometry width="50" height="50" relative="1" as="geometry">
            <mxPoint x="-160" y="310.5" as="sourcePoint" />
            <mxPoint x="60" y="310" as="targetPoint" />
          </mxGeometry>
        </mxCell>
        <mxCell id="i2495FWqEjLljB1UTNFo-21" value="Рекомендации по &lt;br&gt;диагностике&lt;br style=&quot;font-size: 15px;&quot;&gt;&amp;nbsp;и лечению &lt;br style=&quot;font-size: 15px;&quot;&gt;бронхолегочных &lt;br&gt;заболеваний" style="endArrow=classic;html=1;rounded=0;fontSize=15;fontFamily=Times New Roman;" parent="1" edge="1">
          <mxGeometry width="50" height="50" relative="1" as="geometry">
            <mxPoint x="340" y="289.5" as="sourcePoint" />
            <mxPoint x="620" y="289.5" as="targetPoint" />
          </mxGeometry>
        </mxCell>
        <mxCell id="i2495FWqEjLljB1UTNFo-26" value="" style="group" parent="1" vertex="1" connectable="0">
          <mxGeometry x="790" y="1060" width="230" height="100" as="geometry" />
        </mxCell>
        <mxCell id="i2495FWqEjLljB1UTNFo-27" value="&lt;font face=&quot;Times New Roman&quot; style=&quot;font-size: 18px;&quot;&gt;Работа с записями приемов&lt;/font&gt;" style="rounded=1;whiteSpace=wrap;html=1;" parent="i2495FWqEjLljB1UTNFo-26" vertex="1">
          <mxGeometry x="-10" width="227.22" height="100" as="geometry" />
        </mxCell>
        <mxCell id="i2495FWqEjLljB1UTNFo-28" value="&lt;font style=&quot;font-size: 16px;&quot;&gt;А4&lt;/font&gt;" style="text;html=1;strokeColor=none;fillColor=none;align=center;verticalAlign=middle;whiteSpace=wrap;rounded=0;fontFamily=Times New Roman;fontSize=16;" parent="i2495FWqEjLljB1UTNFo-26" vertex="1">
          <mxGeometry x="153.33333333333334" y="70" width="76.66666666666667" height="30" as="geometry" />
        </mxCell>
        <mxCell id="i2495FWqEjLljB1UTNFo-29" value="" style="group" parent="1" vertex="1" connectable="0">
          <mxGeometry x="500" y="940" width="230" height="100" as="geometry" />
        </mxCell>
        <mxCell id="i2495FWqEjLljB1UTNFo-30" value="&lt;font face=&quot;Times New Roman&quot; style=&quot;font-size: 18px;&quot;&gt;Работа с диагнозами&lt;/font&gt;" style="rounded=1;whiteSpace=wrap;html=1;" parent="i2495FWqEjLljB1UTNFo-29" vertex="1">
          <mxGeometry width="217.2222222222222" height="100" as="geometry" />
        </mxCell>
        <mxCell id="i2495FWqEjLljB1UTNFo-31" value="&lt;font style=&quot;font-size: 16px;&quot;&gt;А3&lt;/font&gt;" style="text;html=1;strokeColor=none;fillColor=none;align=center;verticalAlign=middle;whiteSpace=wrap;rounded=0;fontFamily=Times New Roman;fontSize=16;" parent="i2495FWqEjLljB1UTNFo-29" vertex="1">
          <mxGeometry x="153.33333333333334" y="70" width="76.66666666666667" height="30" as="geometry" />
        </mxCell>
        <mxCell id="i2495FWqEjLljB1UTNFo-32" value="" style="group" parent="1" vertex="1" connectable="0">
          <mxGeometry x="-60" y="720" width="230" height="100" as="geometry" />
        </mxCell>
        <mxCell id="i2495FWqEjLljB1UTNFo-33" value="&lt;font face=&quot;Times New Roman&quot; style=&quot;font-size: 18px;&quot;&gt;Авторизация врача&lt;/font&gt;" style="rounded=1;whiteSpace=wrap;html=1;" parent="i2495FWqEjLljB1UTNFo-32" vertex="1">
          <mxGeometry width="217.2222222222222" height="100" as="geometry" />
        </mxCell>
        <mxCell id="i2495FWqEjLljB1UTNFo-34" value="&lt;font style=&quot;font-size: 16px;&quot;&gt;А1&lt;/font&gt;" style="text;html=1;strokeColor=none;fillColor=none;align=center;verticalAlign=middle;whiteSpace=wrap;rounded=0;fontFamily=Times New Roman;fontSize=16;" parent="i2495FWqEjLljB1UTNFo-32" vertex="1">
          <mxGeometry x="153.33333333333334" y="70" width="76.66666666666667" height="30" as="geometry" />
        </mxCell>
        <mxCell id="i2495FWqEjLljB1UTNFo-35" value="" style="group" parent="1" vertex="1" connectable="0">
          <mxGeometry x="220" y="830" width="230" height="100" as="geometry" />
        </mxCell>
        <mxCell id="i2495FWqEjLljB1UTNFo-36" value="&lt;font face=&quot;Times New Roman&quot; style=&quot;font-size: 18px;&quot;&gt;Работа с пациентами&lt;/font&gt;" style="rounded=1;whiteSpace=wrap;html=1;" parent="i2495FWqEjLljB1UTNFo-35" vertex="1">
          <mxGeometry width="217.2222222222222" height="100" as="geometry" />
        </mxCell>
        <mxCell id="i2495FWqEjLljB1UTNFo-37" value="А2" style="text;html=1;strokeColor=none;fillColor=none;align=center;verticalAlign=middle;whiteSpace=wrap;rounded=0;fontFamily=Times New Roman;fontSize=16;" parent="i2495FWqEjLljB1UTNFo-35" vertex="1">
          <mxGeometry x="153.33333333333334" y="70" width="76.66666666666667" height="30" as="geometry" />
        </mxCell>
        <mxCell id="Hxewh8mX1QzhzydHvTQ6-1" value="Данные врача" style="endArrow=classic;html=1;rounded=0;entryX=0;entryY=0.25;entryDx=0;entryDy=0;fontFamily=Times New Roman;fontSize=15;" edge="1" parent="1">
          <mxGeometry width="50" height="50" relative="1" as="geometry">
            <mxPoint x="-160" y="340.5" as="sourcePoint" />
            <mxPoint x="60" y="340" as="targetPoint" />
          </mxGeometry>
        </mxCell>
        <mxCell id="Hxewh8mX1QzhzydHvTQ6-2" value="Данные врача" style="endArrow=classic;html=1;rounded=0;entryX=0;entryY=0.25;entryDx=0;entryDy=0;fontFamily=Times New Roman;fontSize=15;" edge="1" parent="1">
          <mxGeometry width="50" height="50" relative="1" as="geometry">
            <mxPoint x="-280" y="770" as="sourcePoint" />
            <mxPoint x="-60" y="769.5" as="targetPoint" />
          </mxGeometry>
        </mxCell>
        <mxCell id="Hxewh8mX1QzhzydHvTQ6-3" value="" style="endArrow=classic;html=1;rounded=1;exitX=1;exitY=0.5;exitDx=0;exitDy=0;entryX=0;entryY=0.25;entryDx=0;entryDy=0;" edge="1" parent="1" source="i2495FWqEjLljB1UTNFo-33" target="i2495FWqEjLljB1UTNFo-36">
          <mxGeometry width="50" height="50" relative="1" as="geometry">
            <mxPoint x="180" y="790" as="sourcePoint" />
            <mxPoint x="230" y="740" as="targetPoint" />
            <Array as="points">
              <mxPoint x="190" y="770" />
              <mxPoint x="190" y="855" />
            </Array>
          </mxGeometry>
        </mxCell>
        <mxCell id="Hxewh8mX1QzhzydHvTQ6-8" value="Рекомендации по &lt;br&gt;диагностике&lt;br style=&quot;font-size: 15px;&quot;&gt;&amp;nbsp;и лечению &lt;br style=&quot;font-size: 15px;&quot;&gt;бронхолегочных &lt;br&gt;заболеваний" style="endArrow=classic;html=1;rounded=0;fontSize=15;fontFamily=Times New Roman;" edge="1" parent="1">
          <mxGeometry width="50" height="50" relative="1" as="geometry">
            <mxPoint x="1010" y="1109.5" as="sourcePoint" />
            <mxPoint x="1200" y="1110" as="targetPoint" />
          </mxGeometry>
        </mxCell>
        <mxCell id="Hxewh8mX1QzhzydHvTQ6-9" value="Данные о пациенте" style="endArrow=classic;html=1;rounded=0;entryX=0;entryY=0.25;entryDx=0;entryDy=0;fontFamily=Times New Roman;fontSize=15;" edge="1" parent="1">
          <mxGeometry x="-0.52" width="50" height="50" relative="1" as="geometry">
            <mxPoint x="-280" y="900" as="sourcePoint" />
            <mxPoint x="220" y="900" as="targetPoint" />
            <Array as="points">
              <mxPoint x="220" y="900" />
            </Array>
            <mxPoint as="offset" />
          </mxGeometry>
        </mxCell>
        <mxCell id="Hxewh8mX1QzhzydHvTQ6-10" value="" style="endArrow=classic;html=1;rounded=1;exitX=1;exitY=0.5;exitDx=0;exitDy=0;entryX=0;entryY=0.25;entryDx=0;entryDy=0;" edge="1" parent="1">
          <mxGeometry width="50" height="50" relative="1" as="geometry">
            <mxPoint x="437" y="880" as="sourcePoint" />
            <mxPoint x="500" y="965" as="targetPoint" />
            <Array as="points">
              <mxPoint x="470" y="880" />
              <mxPoint x="470" y="965" />
            </Array>
          </mxGeometry>
        </mxCell>
        <mxCell id="Hxewh8mX1QzhzydHvTQ6-11" value="" style="endArrow=classic;html=1;rounded=1;exitX=1;exitY=0.5;exitDx=0;exitDy=0;entryX=0;entryY=0.25;entryDx=0;entryDy=0;" edge="1" parent="1">
          <mxGeometry width="50" height="50" relative="1" as="geometry">
            <mxPoint x="720" y="1000" as="sourcePoint" />
            <mxPoint x="783" y="1085" as="targetPoint" />
            <Array as="points">
              <mxPoint x="753" y="1000" />
              <mxPoint x="753" y="1085" />
            </Array>
          </mxGeometry>
        </mxCell>
        <mxCell id="Hxewh8mX1QzhzydHvTQ6-14" value="Диагноз" style="endArrow=classic;html=1;rounded=0;fontFamily=Times New Roman;fontSize=15;" edge="1" parent="1">
          <mxGeometry x="-0.6923" width="50" height="50" relative="1" as="geometry">
            <mxPoint x="-280" y="1010" as="sourcePoint" />
            <mxPoint x="500" y="1010" as="targetPoint" />
            <mxPoint as="offset" />
          </mxGeometry>
        </mxCell>
        <mxCell id="Hxewh8mX1QzhzydHvTQ6-15" value="Анамнез" style="endArrow=classic;html=1;rounded=0;fontFamily=Times New Roman;fontSize=15;" edge="1" parent="1">
          <mxGeometry x="-0.7736" width="50" height="50" relative="1" as="geometry">
            <mxPoint x="-280" y="1120" as="sourcePoint" />
            <mxPoint x="780" y="1120" as="targetPoint" />
            <mxPoint as="offset" />
          </mxGeometry>
        </mxCell>
        <mxCell id="Hxewh8mX1QzhzydHvTQ6-16" value="" style="endArrow=none;html=1;rounded=0;" edge="1" parent="1">
          <mxGeometry width="50" height="50" relative="1" as="geometry">
            <mxPoint x="40" y="680" as="sourcePoint" />
            <mxPoint x="890" y="680" as="targetPoint" />
          </mxGeometry>
        </mxCell>
        <mxCell id="Hxewh8mX1QzhzydHvTQ6-17" value="" style="endArrow=classic;html=1;rounded=0;" edge="1" parent="1">
          <mxGeometry width="50" height="50" relative="1" as="geometry">
            <mxPoint x="40" y="680" as="sourcePoint" />
            <mxPoint x="40" y="720" as="targetPoint" />
          </mxGeometry>
        </mxCell>
        <mxCell id="Hxewh8mX1QzhzydHvTQ6-18" value="" style="endArrow=classic;html=1;rounded=0;" edge="1" parent="1">
          <mxGeometry width="50" height="50" relative="1" as="geometry">
            <mxPoint x="320" y="680" as="sourcePoint" />
            <mxPoint x="320" y="830" as="targetPoint" />
          </mxGeometry>
        </mxCell>
        <mxCell id="Hxewh8mX1QzhzydHvTQ6-19" value="" style="endArrow=classic;html=1;rounded=0;" edge="1" parent="1">
          <mxGeometry width="50" height="50" relative="1" as="geometry">
            <mxPoint x="610" y="680" as="sourcePoint" />
            <mxPoint x="610" y="940" as="targetPoint" />
          </mxGeometry>
        </mxCell>
        <mxCell id="Hxewh8mX1QzhzydHvTQ6-20" value="" style="endArrow=classic;html=1;rounded=0;" edge="1" parent="1">
          <mxGeometry width="50" height="50" relative="1" as="geometry">
            <mxPoint x="890" y="680" as="sourcePoint" />
            <mxPoint x="890" y="1060" as="targetPoint" />
          </mxGeometry>
        </mxCell>
        <mxCell id="Hxewh8mX1QzhzydHvTQ6-21" value="Термины и &lt;br style=&quot;font-size: 15px;&quot;&gt;условные обозначения" style="endArrow=classic;html=1;rounded=0;entryX=0.214;entryY=0;entryDx=0;entryDy=0;entryPerimeter=0;fontSize=15;fontFamily=Times New Roman;" edge="1" parent="1">
          <mxGeometry width="50" height="50" relative="1" as="geometry">
            <mxPoint x="350" y="570" as="sourcePoint" />
            <mxPoint x="350" y="680" as="targetPoint" />
          </mxGeometry>
        </mxCell>
        <mxCell id="Hxewh8mX1QzhzydHvTQ6-23" value="Клинические&lt;br&gt;&amp;nbsp;рекомендации" style="endArrow=classic;html=1;rounded=0;entryX=0.75;entryY=0;entryDx=0;entryDy=0;fontSize=15;fontFamily=Times New Roman;" edge="1" parent="1">
          <mxGeometry width="50" height="50" relative="1" as="geometry">
            <mxPoint x="520" y="570" as="sourcePoint" />
            <mxPoint x="520" y="680" as="targetPoint" />
          </mxGeometry>
        </mxCell>
        <mxCell id="Hxewh8mX1QzhzydHvTQ6-25" value="" style="endArrow=none;html=1;rounded=0;" edge="1" parent="1">
          <mxGeometry width="50" height="50" relative="1" as="geometry">
            <mxPoint x="40" y="1200" as="sourcePoint" />
            <mxPoint x="890" y="1200" as="targetPoint" />
          </mxGeometry>
        </mxCell>
        <mxCell id="Hxewh8mX1QzhzydHvTQ6-29" value="" style="endArrow=none;html=1;rounded=0;startArrow=classic;startFill=1;endFill=0;" edge="1" parent="1">
          <mxGeometry width="50" height="50" relative="1" as="geometry">
            <mxPoint x="40" y="820" as="sourcePoint" />
            <mxPoint x="40" y="1200" as="targetPoint" />
          </mxGeometry>
        </mxCell>
        <mxCell id="Hxewh8mX1QzhzydHvTQ6-31" value="" style="endArrow=none;html=1;rounded=0;endFill=0;startArrow=classic;startFill=1;" edge="1" parent="1">
          <mxGeometry width="50" height="50" relative="1" as="geometry">
            <mxPoint x="890" y="1160" as="sourcePoint" />
            <mxPoint x="890" y="1200" as="targetPoint" />
          </mxGeometry>
        </mxCell>
        <mxCell id="Hxewh8mX1QzhzydHvTQ6-32" value="" style="endArrow=none;html=1;rounded=0;endFill=0;startArrow=classic;startFill=1;" edge="1" parent="1">
          <mxGeometry width="50" height="50" relative="1" as="geometry">
            <mxPoint x="610" y="1040" as="sourcePoint" />
            <mxPoint x="610" y="1200" as="targetPoint" />
          </mxGeometry>
        </mxCell>
        <mxCell id="Hxewh8mX1QzhzydHvTQ6-33" value="" style="endArrow=none;html=1;rounded=0;exitX=0.456;exitY=1.02;exitDx=0;exitDy=0;exitPerimeter=0;endFill=0;startArrow=classic;startFill=1;" edge="1" parent="1" source="i2495FWqEjLljB1UTNFo-36">
          <mxGeometry width="50" height="50" relative="1" as="geometry">
            <mxPoint x="320" y="940" as="sourcePoint" />
            <mxPoint x="320" y="1200" as="targetPoint" />
          </mxGeometry>
        </mxCell>
        <mxCell id="Hxewh8mX1QzhzydHvTQ6-34" value="База данных" style="endArrow=classic;html=1;rounded=0;fontSize=15;fontFamily=Times New Roman;" edge="1" parent="1">
          <mxGeometry width="50" height="50" relative="1" as="geometry">
            <mxPoint x="290" y="1290" as="sourcePoint" />
            <mxPoint x="290" y="1200" as="targetPoint" />
          </mxGeometry>
        </mxCell>
        <mxCell id="Hxewh8mX1QzhzydHvTQ6-35" value="Пользователь" style="endArrow=classic;html=1;rounded=0;fontSize=15;fontFamily=Times New Roman;" edge="1" parent="1">
          <mxGeometry width="50" height="50" relative="1" as="geometry">
            <mxPoint x="430" y="1290" as="sourcePoint" />
            <mxPoint x="430" y="1200" as="targetPoint" />
          </mxGeometry>
        </mxCell>
        <mxCell id="Hxewh8mX1QzhzydHvTQ6-36" value="ПО/модели и алгоритмы&lt;br style=&quot;font-size: 15px;&quot;&gt;&amp;nbsp;принятия решений" style="endArrow=classic;html=1;rounded=0;fontSize=15;fontFamily=Times New Roman;" edge="1" parent="1">
          <mxGeometry width="50" height="50" relative="1" as="geometry">
            <mxPoint x="580" y="1290" as="sourcePoint" />
            <mxPoint x="580" y="1200" as="targetPoint" />
          </mxGeometry>
        </mxCell>
      </root>
    </mxGraphModel>
  </diagram>
</mxfile>
